# Blender v2.93.1 OBJ File: 'corridor_blend_scene.blend'
# www.blender.org
mtllib cdr_4.mtl
g cdr_4
v -0.658515 0.167424 1.497423
v -0.658515 0.167424 1.258707
v -0.544089 0.281919 1.258707
v -0.544089 0.281919 1.497423
v 0.631900 0.281920 -0.828506
v 0.322415 0.281920 -0.688185
v -0.322415 0.281920 -0.688185
v -0.631900 0.281920 -0.828506
v -0.390223 -0.622655 -0.688185
v 0.390223 -0.622655 -0.688185
v 0.764794 -0.622655 -0.828506
v -0.764794 -0.622655 -0.828506
v 0.658515 0.167424 1.497423
v 0.544089 0.281919 1.497423
v 0.544089 0.281919 1.258707
v 0.658515 0.167424 1.258707
v -0.658515 -0.622655 1.258707
v -0.658515 -0.622655 1.497423
v 0.658515 -0.622655 1.497423
v 0.658515 -0.622655 1.258707
v 0.322415 0.281920 0.688185
v -0.322415 0.281920 0.688185
v 0.390223 -0.622655 0.688185
v 0.764794 -0.622655 0.828506
v 0.764794 0.167425 0.828506
v 0.390223 0.167425 0.688185
v 0.764794 0.167425 -0.828506
v 0.390223 0.167425 -0.688185
v -0.658515 0.167425 -1.497423
v -0.544089 0.281920 -1.497423
v -0.544089 0.281920 -1.258707
v -0.658515 0.167425 -1.258707
v -0.390223 -0.622655 0.688185
v -0.390223 0.167425 -0.688185
v -0.390223 0.167425 0.688185
v 0.658515 0.167425 -1.497423
v 0.658515 0.167425 -1.258707
v 0.544089 0.281920 -1.258707
v 0.544089 0.281920 -1.497423
v -0.658515 -0.622655 -1.258707
v 0.658515 -0.622655 -1.258707
v 0.658515 -0.622654 -1.497423
v -0.658515 -0.622654 -1.497423
v -0.764794 0.167425 -0.828506
v 0.631900 0.281920 -1.140317
v -0.631900 0.281920 -1.140317
v -0.764794 0.167424 1.140317
v -0.764794 0.167425 0.828506
v -0.631900 0.281920 0.828506
v -0.631900 0.281919 1.140317
v -0.764794 -0.622655 1.140316
v 0.764794 0.167424 1.140317
v 0.631900 0.281919 1.140317
v 0.631900 0.281920 0.828506
v 0.764794 -0.622655 1.140316
v -0.764794 0.167425 -1.140317
v -0.764794 -0.622655 -1.140317
v 0.764794 0.167425 -1.140317
v 0.764794 -0.622655 -1.140317
v -0.764794 -0.622655 0.828506
vn 0.7073 -0.7069 -0.0000
vn 0.0000 -1.0000 -0.0000
vn 0.0000 1.0000 0.0000
vn -0.7073 -0.7069 -0.0000
vn -0.3508 -0.0000 0.9364
vn -0.3602 -0.3157 -0.8779
vn 1.0000 -0.0000 0.0000
vn -0.3508 0.0000 -0.9364
vn -1.0000 -0.0000 0.0000
vn 0.3602 -0.3157 -0.8779
vn 0.6527 -0.7576 -0.0000
vn 0.7441 0.0000 -0.6680
vn 0.3508 0.0000 -0.9364
vn -0.6527 -0.7576 -0.0000
vn -0.7441 0.0000 -0.6680
vn -0.8604 -0.5096 -0.0000
vn 0.7441 -0.0000 0.6680
vn -0.5936 -0.6411 0.4865
vn -0.7441 -0.0000 0.6680
vn 0.8604 -0.5096 -0.0000
vn 0.3508 -0.0000 0.9364
vn 0.5936 -0.6411 0.4865
vn 0.5936 -0.6411 -0.4865
vn -0.5936 -0.6411 -0.4865
vn 0.3602 -0.3157 0.8779
vn -0.3602 -0.3157 0.8779
usemtl cdr_4
s off
f 1//1 2//1 3//1 4//1
f 5//2 6//2 7//2 8//2
f 9//3 10//3 11//3 12//3
f 13//4 14//4 15//4 16//4
f 17//3 18//3 19//3 20//3
f 6//2 21//2 22//2 7//2
f 23//5 24//5 25//5 26//5
f 27//6 28//6 6//6 5//6
f 14//2 4//2 3//2 15//2
f 17//7 2//7 1//7 18//7
f 29//1 30//1 31//1 32//1
f 33//7 9//7 34//7 35//7
f 10//8 28//8 27//8 11//8
f 36//4 37//4 38//4 39//4
f 23//9 26//9 28//9 10//9
f 40//3 41//3 42//3 43//3
f 44//10 8//10 7//10 34//10
f 33//3 23//3 10//3 9//3
f 39//2 38//2 31//2 30//2
f 38//2 45//2 46//2 31//2
f 47//11 48//11 49//11 50//11
f 51//12 47//12 2//12 17//12
f 9//13 12//13 44//13 34//13
f 52//14 53//14 54//14 25//14
f 55//15 20//15 16//15 52//15
f 28//16 26//16 21//16 6//16
f 41//9 37//9 36//9 42//9
f 51//3 17//3 20//3 55//3
f 53//2 50//2 49//2 54//2
f 20//9 19//9 13//9 16//9
f 56//11 46//11 8//11 44//11
f 57//17 40//17 32//17 56//17
f 37//18 58//18 45//18 38//18
f 58//14 27//14 5//14 45//14
f 59//19 58//19 37//19 41//19
f 34//20 7//20 22//20 35//20
f 33//21 35//21 48//21 60//21
f 57//3 59//3 41//3 40//3
f 45//2 5//2 8//2 46//2
f 32//22 31//22 46//22 56//22
f 60//7 48//7 47//7 51//7
f 33//3 60//3 24//3 23//3
f 24//9 55//9 52//9 25//9
f 54//2 49//2 22//2 21//2
f 60//3 51//3 55//3 24//3
f 15//2 3//2 50//2 53//2
f 12//7 57//7 56//7 44//7
f 2//23 47//23 50//23 3//23
f 11//9 27//9 58//9 59//9
f 40//7 43//7 29//7 32//7
f 12//3 11//3 59//3 57//3
f 16//24 15//24 53//24 52//24
f 48//25 35//25 22//25 49//25
f 25//26 54//26 21//26 26//26
