# Blender v2.93.1 OBJ File: 'corridor_blend_scene.blend'
# www.blender.org
mtllib cdr_5.mtl
g cdr_5
v -0.658515 0.167424 1.497423
v -0.658515 0.167425 0.617760
v -0.544089 0.281920 0.617760
v -0.544089 0.281919 1.497423
v 0.422002 -0.622655 0.403262
v 0.658515 -0.622655 0.617760
v 0.658515 0.167425 0.617760
v 0.422002 0.167425 0.403262
v 0.422002 -0.622655 -0.691430
v -0.422002 -0.622655 -0.691430
v -0.422002 -0.622655 0.403262
v 0.658515 0.167424 1.497423
v 0.544089 0.281919 1.497423
v 0.544089 0.281920 0.617760
v 0.658515 -0.622655 -0.905928
v 0.658515 -0.622654 -1.497423
v -0.658515 -0.622654 -1.497423
v -0.658515 -0.622655 -0.905928
v -0.348674 0.281920 -0.691430
v 0.348674 0.281920 -0.691430
v 0.348674 0.281920 0.403262
v -0.348674 0.281920 0.403262
v 0.422002 0.167425 -0.691430
v 0.658515 0.167425 -0.905928
v -0.658515 0.167425 -1.497423
v -0.658515 0.167425 -0.905928
v -0.544089 0.281920 -0.905928
v 0.544089 0.281920 -0.905928
v -0.422002 0.167425 -0.691430
v -0.422002 0.167425 0.403262
v -0.658515 -0.622655 0.617760
v -0.658515 -0.622655 1.497423
v 0.658515 -0.622655 1.497423
v 0.658515 0.167425 -1.497423
v -0.544089 0.281920 -1.497423
v 0.544089 0.281920 -1.497423
vn 0.7073 -0.7069 -0.0000
vn -0.6718 -0.0000 0.7407
vn 0.0000 1.0000 0.0000
vn -0.7073 -0.7069 -0.0000
vn 0.0000 -1.0000 -0.0000
vn -0.8421 -0.5393 -0.0000
vn -0.6718 0.0000 -0.7407
vn 1.0000 0.0000 0.0000
vn 0.6718 0.0000 -0.7407
vn -0.6102 -0.5003 -0.6143
vn -1.0000 -0.0000 0.0000
vn 0.6718 -0.0000 0.7407
vn -0.6102 -0.5003 0.6143
vn 0.6102 -0.5003 -0.6143
vn 0.6102 -0.5003 0.6143
vn 0.8421 -0.5393 -0.0000
usemtl cdr_5
s off
f 1//1 2//1 3//1 4//1
f 5//2 6//2 7//2 8//2
f 5//3 9//3 10//3 11//3
f 12//4 13//4 14//4 7//4
f 15//3 16//3 17//3 18//3
f 19//5 20//5 21//5 22//5
f 4//5 3//5 14//5 13//5
f 23//6 8//6 21//6 20//6
f 9//7 23//7 24//7 15//7
f 18//8 17//8 25//8 26//8
f 27//5 28//5 20//5 19//5
f 11//8 10//8 29//8 30//8
f 10//9 18//9 26//9 29//9
f 24//10 23//10 20//10 28//10
f 5//11 8//11 23//11 9//11
f 11//12 30//12 2//12 31//12
f 7//13 14//13 21//13 8//13
f 31//8 2//8 1//8 32//8
f 26//14 27//14 19//14 29//14
f 2//15 30//15 22//15 3//15
f 6//11 33//11 12//11 7//11
f 5//3 11//3 31//3 6//3
f 15//11 24//11 34//11 16//11
f 29//16 19//16 22//16 30//16
f 35//5 36//5 28//5 27//5
f 6//3 31//3 32//3 33//3
f 25//1 35//1 27//1 26//1
f 9//3 15//3 18//3 10//3
f 3//5 22//5 21//5 14//5
f 34//4 24//4 28//4 36//4
