# Blender v2.93.1 OBJ File: 'corridor_blend_scene.blend'
# www.blender.org
mtllib cdr_6.mtl
g cdr_6
v -0.658515 0.167424 1.497423
v -0.658515 0.167424 1.156024
v -0.544089 0.281919 1.156024
v -0.544089 0.281919 1.497423
v 0.658515 -0.622655 0.137849
v -0.658515 -0.622655 0.137849
v -0.658515 -0.622655 0.298408
v 0.007311 -0.622655 0.298408
v 0.658515 -0.622655 -0.148023
v -0.658515 -0.622655 -0.148023
v 0.658515 0.167424 1.497423
v 0.544089 0.281919 1.497423
v 0.544089 0.281919 1.156024
v 0.658515 0.167424 1.156024
v 0.007311 0.167425 0.298408
v 0.658515 0.167425 0.137850
v 0.658515 -0.622655 -1.158365
v 0.658515 0.167425 -1.158365
v 0.658515 0.167425 -1.497423
v 0.658515 -0.622654 -1.497423
v 0.544089 0.281920 -0.148023
v 0.544089 0.281920 0.137850
v -0.544089 0.281920 0.137850
v -0.544089 0.281920 -0.148023
v -0.658515 -0.622655 -1.158365
v -0.658515 -0.622654 -1.497423
v -0.658515 0.167425 -1.497423
v -0.658515 0.167425 -1.158365
v -0.658515 0.167425 0.137850
v -0.658515 0.167425 0.298408
v -0.544089 0.281920 -1.497423
v -0.544089 0.281920 -1.158365
v -0.658515 0.167425 -0.148023
v 0.544089 0.281920 -1.497423
v 0.544089 0.281920 -1.158365
v 0.658515 0.167425 -0.148023
v -0.658515 0.167424 1.003298
v -0.544089 0.281920 0.298408
v -0.544089 0.281920 1.003298
v -0.658515 -0.622655 1.003298
v -0.658515 -0.622655 1.156024
v 0.658515 -0.622655 -1.003298
v -0.010571 -0.622655 -1.003298
v 0.007311 0.167424 1.003298
v -0.107115 0.281920 1.003298
v -0.107115 0.281920 0.298408
v 0.007311 -0.622655 1.003298
v 0.658515 -0.622655 1.156024
v 0.658515 0.167425 -0.294492
v 0.658515 -0.622655 -0.294492
v -0.010571 -0.622655 -0.294492
v -0.010571 0.167425 -0.294492
v -0.010571 0.167425 -1.003298
v 0.103856 0.281920 -1.003298
v 0.103856 0.281920 -0.294491
v 0.544089 0.281920 -1.003298
v 0.544089 0.281920 -0.294491
v 0.658515 0.167425 -1.003298
v -0.658515 -0.622655 1.497423
v 0.658515 -0.622655 1.497423
vn 0.7073 -0.7069 -0.0000
vn 0.0000 1.0000 0.0000
vn -0.7073 -0.7069 -0.0000
vn -0.2394 0.0000 -0.9709
vn -1.0000 0.0000 0.0000
vn 0.0000 -1.0000 -0.0000
vn 1.0000 0.0000 0.0000
vn -0.2283 -0.0000 0.9736
vn 0.2205 -0.0000 0.9754
vn 0.2327 0.0000 -0.9725
vn -0.2328 -0.2327 -0.9443
vn 0.2153 -0.2152 0.9525
vn -0.2226 -0.2225 0.9492
vn 0.2267 -0.2266 -0.9472
usemtl cdr_6
s off
f 1//1 2//1 3//1 4//1
f 5//2 6//2 7//2 8//2
f 5//2 9//2 10//2 6//2
f 11//3 12//3 13//3 14//3
f 5//4 8//4 15//4 16//4
f 17//5 18//5 19//5 20//5
f 21//6 22//6 23//6 24//6
f 25//7 26//7 27//7 28//7
f 12//6 4//6 3//6 13//6
f 6//7 29//7 30//7 7//7
f 27//1 31//1 32//1 28//1
f 6//7 10//7 33//7 29//7
f 34//6 35//6 32//6 31//6
f 19//3 18//3 35//3 34//3
f 5//5 16//5 36//5 9//5
f 33//1 24//1 23//1 29//1
f 37//1 30//1 38//1 39//1
f 40//7 37//7 2//7 41//7
f 42//2 17//2 25//2 43//2
f 44//3 45//3 46//3 15//3
f 47//8 48//8 14//8 44//8
f 17//2 20//2 26//2 25//2
f 9//5 36//5 49//5 50//5
f 10//9 51//9 52//9 33//9
f 45//6 39//6 38//6 46//6
f 47//2 40//2 41//2 48//2
f 53//1 54//1 55//1 52//1
f 43//10 25//10 28//10 53//10
f 56//6 57//6 55//6 54//6
f 58//3 49//3 57//3 56//3
f 42//5 58//5 18//5 17//5
f 36//3 16//3 22//3 21//3
f 7//7 30//7 37//7 40//7
f 50//2 42//2 43//2 51//2
f 8//5 47//5 44//5 15//5
f 18//3 58//3 56//3 35//3
f 35//6 56//6 54//6 32//6
f 8//2 7//2 40//2 47//2
f 51//7 43//7 53//7 52//7
f 50//5 49//5 58//5 42//5
f 30//1 29//1 23//1 38//1
f 15//11 46//11 22//11 16//11
f 9//2 50//2 51//2 10//2
f 46//6 38//6 23//6 22//6
f 52//12 55//12 24//12 33//12
f 57//6 21//6 24//6 55//6
f 49//3 36//3 21//3 57//3
f 48//2 41//2 59//2 60//2
f 2//1 37//1 39//1 3//1
f 14//13 13//13 45//13 44//13
f 28//14 32//14 54//14 53//14
f 13//6 3//6 39//6 45//6
f 41//7 2//7 1//7 59//7
f 48//5 60//5 11//5 14//5
