# Blender v2.93.1 OBJ File: 'corridor_blend_scene.blend'
# www.blender.org
mtllib cdr_2.mtl
g cdr_2
v -0.658515 0.167424 1.497423
v -0.658515 0.167425 0.220218
v -0.544089 0.281920 0.220218
v -0.544089 0.281919 1.497423
v -0.658515 -0.622655 0.220218
v -0.658515 -0.622655 1.497423
v 0.957874 -0.622655 -0.908694
v 0.658515 -0.622655 -1.028814
v -0.658515 -0.622655 -1.028814
v -0.957874 -0.622655 -0.908694
v 0.658515 0.167424 1.497423
v 0.544089 0.281919 1.497423
v 0.544089 0.281920 0.220218
v 0.658515 0.167425 0.220218
v 0.658515 -0.622655 0.220218
v 0.658515 -0.622655 1.497423
v -0.658515 0.167425 -1.028813
v -0.957874 0.167425 -0.908694
v 0.957874 -0.622655 0.084290
v -0.957874 -0.622655 0.084290
v 0.791429 0.281920 0.084290
v -0.791429 0.281920 0.084290
v -0.658515 0.167425 -1.497423
v -0.544089 0.281920 -1.497423
v -0.544089 0.281920 -1.028813
v -0.957874 0.167425 0.084290
v -0.791429 0.281920 -0.908694
v 0.658515 0.167425 -1.497423
v 0.658515 0.167425 -1.028813
v 0.544089 0.281920 -1.028813
v 0.544089 0.281920 -1.497423
v 0.957874 0.167425 0.084290
v 0.791429 0.281920 -0.908694
v 0.957874 0.167425 -0.908694
v -0.658515 -0.622654 -1.497423
v 0.658515 -0.622654 -1.497423
vn 0.7073 -0.7069 -0.0000
vn 1.0000 -0.0000 0.0000
vn 0.0000 1.0000 0.0000
vn -0.7073 -0.7069 -0.0000
vn -1.0000 0.0000 0.0000
vn 0.3724 -0.0000 0.9281
vn 0.0000 -1.0000 -0.0000
vn 0.4134 0.0000 -0.9105
vn 0.5667 -0.8239 -0.0000
vn -0.4134 0.0000 -0.9105
vn -0.3908 -0.4793 -0.7858
vn 0.3608 -0.4425 0.8210
vn -0.3724 -0.0000 0.9281
vn -0.3608 -0.4425 0.8210
vn -0.5667 -0.8239 -0.0000
vn 0.3908 -0.4793 -0.7858
usemtl cdr_2
s off
f 1//1 2//1 3//1 4//1
f 5//2 2//2 1//2 6//2
f 7//3 8//3 9//3 10//3
f 11//4 12//4 13//4 14//4
f 15//5 16//5 11//5 14//5
f 10//6 9//6 17//6 18//6
f 19//3 7//3 10//3 20//3
f 21//7 13//7 3//7 22//7
f 12//7 4//7 3//7 13//7
f 15//3 5//3 6//3 16//3
f 23//1 24//1 25//1 17//1
f 5//8 20//8 26//8 2//8
f 18//9 27//9 22//9 26//9
f 28//4 29//4 30//4 31//4
f 15//10 14//10 32//10 19//10
f 33//7 21//7 22//7 27//7
f 19//5 32//5 34//5 7//5
f 32//11 14//11 13//11 21//11
f 31//7 30//7 25//7 24//7
f 15//3 19//3 20//3 5//3
f 17//12 25//12 27//12 18//12
f 9//2 35//2 23//2 17//2
f 7//13 34//13 29//13 8//13
f 29//14 34//14 33//14 30//14
f 8//5 29//5 28//5 36//5
f 34//15 32//15 21//15 33//15
f 20//2 10//2 18//2 26//2
f 26//16 22//16 3//16 2//16
f 30//7 33//7 27//7 25//7
f 8//3 36//3 35//3 9//3
