# Blender v2.93.1 OBJ File: 'corridor_blend_scene.blend'
# www.blender.org
mtllib cdr_3.mtl
g cdr_3
v -0.658515 0.167424 1.497423
v -0.658515 0.167424 1.244352
v -0.544089 0.281919 1.244352
v -0.544089 0.281919 1.497423
v -0.658515 -0.622655 -0.186240
v -0.658515 0.167425 -0.186240
v -0.658515 0.167425 0.865519
v -0.658515 -0.622655 0.865519
v -0.658515 -0.622655 1.244352
v -0.658515 -0.622655 1.497423
v 0.658515 -0.622655 1.497423
v 0.658515 -0.622655 1.244352
v 0.658515 0.167424 1.497423
v 0.544089 0.281919 1.497423
v 0.544089 0.281919 1.244352
v 0.658515 0.167424 1.244352
v 0.977084 -0.622655 -0.186240
v 0.977084 -0.622655 0.865519
v 0.977084 0.167425 0.865519
v 0.977084 0.167425 -0.186240
v 0.658515 -0.622655 -1.255182
v 0.658515 0.167425 -1.255182
v 0.658515 0.167425 -1.497423
v 0.658515 -0.622654 -1.497423
v -0.658515 0.167425 -1.255182
v -0.544089 0.281920 -1.255182
v -0.544089 0.281920 -0.186240
v -0.658515 0.167425 -1.497423
v -0.544089 0.281920 -1.497423
v -0.658515 -0.622655 -1.255182
v -0.544089 0.281920 0.865519
v 0.862657 0.281920 0.865519
v 0.544089 0.281920 -1.255182
v 0.544089 0.281920 -1.497423
v 0.862657 0.281920 -0.186240
v -0.658515 -0.622654 -1.497423
vn 0.7073 -0.7069 -0.0000
vn 1.0000 -0.0000 0.0000
vn 0.0000 1.0000 0.0000
vn -0.7073 -0.7069 -0.0000
vn -1.0000 0.0000 0.0000
vn 0.0000 -1.0000 -0.0000
vn -0.9583 -0.0000 0.2856
vn -0.6921 -0.6917 0.2063
vn -0.6079 -0.6075 -0.5112
vn -0.7654 0.0000 -0.6436
usemtl cdr_3
s off
f 1//1 2//1 3//1 4//1
f 5//2 6//2 7//2 8//2
f 9//3 10//3 11//3 12//3
f 13//4 14//4 15//4 16//4
f 17//5 18//5 19//5 20//5
f 21//5 22//5 23//5 24//5
f 4//6 3//6 15//6 14//6
f 5//3 8//3 18//3 17//3
f 9//2 2//2 1//2 10//2
f 25//1 26//1 27//1 6//1
f 28//1 29//1 26//1 25//1
f 5//2 30//2 25//2 6//2
f 3//6 31//6 32//6 15//6
f 23//4 22//4 33//4 34//4
f 17//7 20//7 22//7 21//7
f 22//8 20//8 35//8 33//8
f 29//6 34//6 33//6 26//6
f 5//3 17//3 21//3 30//3
f 16//9 15//9 32//9 19//9
f 12//5 11//5 13//5 16//5
f 7//1 6//1 27//1 31//1
f 8//2 7//2 2//2 9//2
f 30//3 21//3 24//3 36//3
f 19//4 32//4 35//4 20//4
f 18//10 12//10 16//10 19//10
f 30//2 36//2 28//2 25//2
f 31//6 27//6 35//6 32//6
f 8//3 9//3 12//3 18//3
f 2//1 7//1 31//1 3//1
f 26//6 33//6 35//6 27//6
